<?xml version="1.0" encoding="UTF-8" standalone="no"?>
<!DOCTYPE svg PUBLIC "-//W3C//DTD SVG 1.1//EN" "http://www.w3.org/Graphics/SVG/1.1/DTD/svg11.dtd">
<svg width="100%" height="100%" viewBox="0 0 1000 1000" version="1.1" xmlns="http://www.w3.org/2000/svg" xmlns:xlink="http://www.w3.org/1999/xlink" xml:space="preserve" xmlns:serif="http://www.serif.com/" style="fill-rule:evenodd;clip-rule:evenodd;stroke-linecap:round;stroke-linejoin:round;stroke-miterlimit:1.5;">
    <g id="Chat-bubble" serif:id="Chat bubble" transform="matrix(1.41827,0,0,1.41827,-202.514,-268.825)">
        <path d="M758.758,320.654C758.758,302.104 735.568,283.846 717.018,283.846L268.886,283.846C251.495,283.846 231.908,303.262 231.908,320.654L231.908,624.608C231.908,640.618 246.505,655.26 268.886,655.26C341.211,655.26 500,655.36 500,655.36L500,800.328C500,800.328 555.716,693.625 568.497,669.013C572.911,660.512 582.118,655.26 593.197,655.26L717.018,655.26C734.3,655.26 758.758,634.859 758.758,617.577L758.758,320.654Z" style="fill:rgb(6,6,81);stroke:rgb(17,0,37);stroke-width:29.38px;"/>
    </g>
    <g id="q" transform="matrix(340.864,0,0,340.864,523.932,529.378)">
        <path d="M0.522,-0.489C0.529,-0.489 0.537,-0.48 0.537,-0.473L0.537,0.165C0.537,0.175 0.529,0.18 0.522,0.18L0.428,0.18C0.421,0.18 0.412,0.173 0.412,0.165L0.412,-0.077C0.397,-0.05 0.376,-0.029 0.348,-0.015C0.321,0 0.29,0.008 0.255,0.008C0.212,0.008 0.175,-0.002 0.142,-0.023C0.109,-0.044 0.084,-0.073 0.066,-0.111C0.047,-0.149 0.038,-0.193 0.038,-0.244C0.038,-0.295 0.047,-0.34 0.066,-0.379C0.084,-0.418 0.11,-0.448 0.142,-0.469C0.175,-0.49 0.213,-0.501 0.255,-0.501C0.29,-0.501 0.322,-0.494 0.349,-0.478C0.377,-0.464 0.398,-0.442 0.413,-0.415L0.413,-0.473C0.413,-0.48 0.421,-0.489 0.428,-0.489L0.522,-0.489ZM0.289,-0.089C0.328,-0.089 0.359,-0.103 0.381,-0.13C0.402,-0.157 0.413,-0.196 0.413,-0.246C0.413,-0.297 0.402,-0.336 0.381,-0.363C0.359,-0.39 0.328,-0.404 0.288,-0.404C0.249,-0.404 0.218,-0.39 0.196,-0.362C0.174,-0.334 0.163,-0.295 0.163,-0.244C0.163,-0.195 0.174,-0.157 0.196,-0.13C0.218,-0.102 0.249,-0.089 0.289,-0.089Z" style="fill:rgb(137,135,238);fill-rule:nonzero;"/>
    </g>
    <g id="F" transform="matrix(534.929,0,0,534.929,249.738,590.734)">
        <path d="M0.085,0C0.081,0 0.076,-0.004 0.076,-0.008L0.076,-0.696C0.076,-0.701 0.079,-0.705 0.085,-0.705L0.531,-0.705C0.534,-0.705 0.537,-0.702 0.537,-0.698C0.53,-0.663 0.529,-0.655 0.52,-0.61C0.519,-0.607 0.514,-0.602 0.51,-0.602L0.203,-0.602L0.203,-0.41L0.508,-0.41C0.512,-0.41 0.518,-0.405 0.518,-0.401L0.518,-0.317C0.518,-0.312 0.512,-0.307 0.508,-0.307L0.203,-0.307L0.203,-0.008C0.203,-0.003 0.198,0 0.194,0L0.085,0Z" style="fill:rgb(137,135,238);fill-rule:nonzero;"/>
    </g>
</svg>
